<?xml version="1.0" encoding="UTF-8"?>
<svg xmlns="http://www.w3.org/2000/svg" version="1.1" viewBox="0 0 595.28 841.89">
  <!-- Generator: Adobe Illustrator 29.1.0, SVG Export Plug-In . SVG Version: 2.1.0 Build 142)  -->
  <defs>
    <style>
      .st0 {
        fill: #253d95;
      }

      .st1 {
        fill: #a09734;
      }

      .st2 {
        fill: #75c043;
      }

      .st3 {
        fill: #231f20;
      }

      .st4 {
        fill: #08a24a;
        stroke: #08a24a;
        stroke-miterlimit: 10;
      }

      .st5 {
        fill: #e2e419;
      }

      .st6 {
        fill: #5cc6ca;
      }

      .st7 {
        fill: #a16127;
      }

      .st8 {
        font-family: BigCityGrotesquePro-Black, 'BigCity Grotesque Pro';
        font-size: 198.24px;
        font-weight: 800;
      }

      .st9 {
        fill: #f173ac;
      }
    </style>
  </defs>
  <g id="Layer_7">
    <g>
      <ellipse class="st5" cx="301.21" cy="170.01" rx="59.65" ry="55.2"/>
      <ellipse class="st0" cx="301.21" cy="618.92" rx="59.65" ry="55.2"/>
      <ellipse class="st4" cx="66" cy="387.43" rx="59.65" ry="55.2"/>
      <ellipse class="st1" cx="531.47" cy="387.43" rx="59.65" ry="55.2"/>
      <ellipse class="st9" cx="456.68" cy="225.21" rx="59.65" ry="55.2"/>
      <ellipse class="st6" cx="140.92" cy="225.21" rx="59.65" ry="55.2"/>
      <ellipse class="st7" cx="130.78" cy="546.11" rx="59.65" ry="55.2"/>
      <ellipse class="st2" cx="467.41" cy="546.11" rx="59.65" ry="55.2"/>
    </g>
  </g>
  <g id="Layer_1">
    <path class="st3" d="M371.98,311.5h-.16c-.07,0-.14.01-.22.01l-.13-.45c.17.14.34.29.51.44Z"/>
    <path class="st3" d="M371.98,311.5h-.16c-.07,0-.14.01-.22.01l-.13-.45c.17.14.34.29.51.44Z"/>
    <path class="st3" d="M371.98,311.5h-.16c-.07,0-.14.01-.22.01l-.13-.45c.17.14.34.29.51.44Z"/>
    <g>
      <text class="st8" transform="translate(148.97 380.8) scale(1.4 1)"><tspan x="0" y="0">R</tspan></text>
      <text class="st8" transform="translate(301.21 528) scale(1.4 1)"><tspan x="0" y="0">R</tspan></text>
    </g>
  </g>
  <g id="Layer_4">
    <polygon points="229.84 509.83 229.89 509.88 199.59 530.29 212.66 493.95 212.58 493.88 352.39 312.23 369.59 328.23 229.84 509.83"/>
  </g>
  <g id="Layer_8">
    <path d="M396.65,253.87c-17.61,1.2-29.61,12.89-34.17,17.33-2.34,2.28-4.82,4.73-7.19,8.67-1.78,2.96-9.97,16.55-3.6,31.2,4.03,9.27,13.48,18.05,25.18,19.07,14.38,1.25,26.74-9.69,32.37-19.07,10.38-17.29,1.93-35.97,12.59-41.6,5.08-2.68,10.32-.2,10.79-1.73.88-2.87-16.36-15.2-35.97-13.87Z"/>
  </g>
</svg>